<svg width="176" height="49" xmlns="http://www.w3.org/2000/svg">

   <g>
      <title>Layer 1</title>
      <path id="svg_3" fill="#3258a1" d="m40.864,44.934l0,3.758c-0.078,-0.078 -0.157,-0.078 -0.235,-0.078l-0.704,0c-0.156,0 -0.235,0 -0.313,0.078c0.078,-0.548 0.078,-1.174 0.078,-1.801c0.079,-0.626 0.079,-1.33 0.079,-2.035c0,-0.782 0,-1.487 -0.079,-2.113c0,-0.627 0,-1.175 -0.078,-1.723c0.391,0.078 0.705,0.078 1.096,0.078l2.036,0c0.313,0 0.626,0 0.939,-0.078l0,0.782c-0.313,0 -0.548,-0.078 -0.861,-0.078c-0.313,-0.078 -0.626,-0.078 -0.939,-0.078l-1.018,0l0,2.661l1.8,0c0.235,0 0.548,0 0.861,-0.078c-0.078,0.078 -0.078,0.156 -0.078,0.234l0,0.079c0,0.078 0,0.234 0.078,0.391l0,0.079c-0.392,-0.079 -0.704,-0.079 -0.939,-0.079l-1.723,0l0,0.001zm11.273,-2.661c0.47,0.626 0.705,1.487 0.705,2.583c0,1.097 -0.235,1.957 -0.705,2.584c-0.548,0.548 -1.252,0.861 -2.192,0.861s-1.644,-0.313 -2.114,-0.861c-0.548,-0.627 -0.783,-1.487 -0.783,-2.662c0,-1.096 0.235,-1.879 0.783,-2.505c0.47,-0.548 1.253,-0.861 2.114,-0.861c0.94,-0.001 1.644,0.313 2.192,0.861zm0.861,5.479c0.705,-0.704 1.096,-1.644 1.096,-2.896s-0.391,-2.191 -1.096,-2.896c-0.705,-0.704 -1.722,-1.018 -3.053,-1.018c-1.252,0 -2.27,0.313 -2.975,1.018c-0.783,0.705 -1.174,1.645 -1.174,2.896c0,1.253 0.392,2.192 1.174,2.896c0.705,0.705 1.722,1.018 2.975,1.018c1.331,0 2.349,-0.313 3.053,-1.018zm9.629,-5.088l-0.078,0c-0.235,-0.47 -0.548,-0.705 -0.939,-0.939c-0.392,-0.235 -0.861,-0.313 -1.331,-0.313c-0.861,0 -1.565,0.313 -2.035,0.939c-0.548,0.548 -0.783,1.409 -0.783,2.427c0,1.096 0.235,1.879 0.783,2.506c0.548,0.626 1.174,0.938 2.113,0.938a3.56,3.56 0 0 0 1.253,-0.234c0.391,-0.235 0.783,-0.47 1.096,-0.861l0.157,0.078c-0.078,0.079 -0.078,0.235 -0.078,0.392s-0.079,0.313 -0.079,0.47c-0.391,0.235 -0.861,0.47 -1.252,0.548c-0.47,0.156 -0.861,0.234 -1.331,0.234c-1.253,0 -2.192,-0.391 -2.896,-1.096c-0.705,-0.704 -1.018,-1.644 -1.018,-2.896s0.312,-2.191 1.096,-2.896c0.704,-0.704 1.722,-1.018 2.975,-1.018c0.47,0 0.861,0.078 1.331,0.156c0.391,0.078 0.861,0.235 1.331,0.47c-0.078,0.079 -0.156,0.313 -0.156,0.47c-0.081,0.156 -0.081,0.39 -0.159,0.625zm2.584,-1.644c0.156,0.078 0.234,0.078 0.313,0.078l0.705,0c0.157,0 0.235,0 0.313,-0.078c0,0.47 -0.078,0.861 -0.078,1.175l0,4.07c0.078,0.313 0.078,0.548 0.156,0.705c0.157,0.47 0.392,0.704 0.705,0.939a2.95,2.95 0 0 0 1.252,0.312c0.392,0 0.783,-0.078 1.097,-0.156c0.312,-0.156 0.548,-0.313 0.782,-0.548c0.235,-0.156 0.392,-0.47 0.47,-0.705c0.079,-0.312 0.157,-0.86 0.157,-1.644l0,-1.879c0,-0.47 -0.078,-0.861 -0.078,-1.253c0,-0.312 0,-0.704 -0.079,-1.018c0.079,0.078 0.157,0.078 0.235,0.078l0.547,0c0.078,0 0.156,0 0.156,-0.078c0,0.392 -0.078,0.705 -0.078,1.175l0,3.444c0,1.096 -0.313,1.879 -0.861,2.349c-0.548,0.548 -1.409,0.782 -2.505,0.782c-0.626,0 -1.174,-0.078 -1.644,-0.234c-0.47,-0.234 -0.783,-0.47 -1.018,-0.861c-0.157,-0.234 -0.235,-0.47 -0.313,-0.783c-0.078,-0.312 -0.078,-0.704 -0.078,-1.33l0,-2.584c0,-0.392 0,-0.704 -0.078,-1.018c0,-0.311 0,-0.625 -0.078,-0.938zm9.315,5.95l0.079,0c0.156,0.392 0.391,0.782 0.783,0.939c0.313,0.234 0.705,0.392 1.096,0.392c0.548,0 0.939,-0.157 1.174,-0.392c0.313,-0.313 0.47,-0.626 0.47,-1.097c0,-0.391 -0.078,-0.704 -0.313,-0.939c-0.235,-0.234 -0.626,-0.469 -1.331,-0.704c-0.783,-0.313 -1.331,-0.626 -1.566,-0.939c-0.313,-0.313 -0.47,-0.705 -0.47,-1.175c0,-0.704 0.235,-1.174 0.705,-1.565c0.392,-0.392 1.018,-0.548 1.722,-0.548s1.331,0.156 1.879,0.47c-0.078,0.156 -0.157,0.313 -0.157,0.47c-0.078,0.234 -0.156,0.392 -0.156,0.626l-0.157,0c-0.078,-0.392 -0.235,-0.704 -0.47,-0.86c-0.235,-0.235 -0.626,-0.313 -1.018,-0.313c-0.47,0 -0.783,0.156 -1.018,0.392c-0.313,0.234 -0.392,0.548 -0.392,0.939c0,0.312 0.078,0.548 0.313,0.782c0.235,0.235 0.626,0.47 1.252,0.705c0.861,0.312 1.409,0.626 1.723,0.939c0.313,0.313 0.469,0.704 0.469,1.253c0,0.704 -0.313,1.252 -0.783,1.8c-0.548,0.47 -1.174,0.704 -2.035,0.704a4.63,4.63 0 0 1 -1.096,-0.156c-0.313,-0.156 -0.626,-0.312 -0.861,-0.548c0,-0.156 0.078,-0.392 0.078,-0.548c0.08,-0.235 0.08,-0.393 0.08,-0.627zm16.519,-4.697c0.469,0.626 0.705,1.487 0.705,2.583c0,1.097 -0.236,1.957 -0.705,2.584c-0.549,0.548 -1.252,0.861 -2.191,0.861c-0.94,0 -1.645,-0.313 -2.115,-0.861c-0.47,-0.627 -0.783,-1.487 -0.783,-2.662c0,-1.096 0.313,-1.879 0.783,-2.505c0.548,-0.548 1.253,-0.861 2.115,-0.861c0.939,-0.001 1.642,0.313 2.191,0.861zm0.861,5.479c0.781,-0.704 1.096,-1.644 1.096,-2.896s-0.314,-2.191 -1.096,-2.896c-0.705,-0.704 -1.723,-1.018 -3.053,-1.018c-1.253,0 -2.271,0.313 -2.976,1.018c-0.783,0.705 -1.096,1.645 -1.096,2.896c0,1.253 0.313,2.192 1.096,2.896c0.705,0.705 1.722,1.018 3.054,1.018c1.253,0 2.27,-0.313 2.975,-1.018zm3.522,0.94c0.078,-0.548 0.158,-1.33 0.158,-2.348c0.078,-1.019 0.078,-2.271 0.078,-3.759l0,-0.782c0,-0.313 -0.078,-0.548 -0.078,-0.861l0.469,0c0.783,0.939 1.645,1.957 2.584,2.896a46.533,46.533 0 0 0 2.662,2.896l0,-2.975l0,-1.253c0,-0.47 -0.08,-0.939 -0.08,-1.487c0.08,0.078 0.158,0.078 0.236,0.078l0.39,0c0.078,0 0.156,0 0.234,-0.078c-0.078,0.47 -0.078,1.175 -0.156,2.192l0,5.558l-0.391,0c-0.234,-0.312 -0.471,-0.704 -0.861,-1.018a16.266,16.266 0 0 0 -1.252,-1.408l-3.211,-3.445l0,3.054c0,0.548 0.078,1.018 0.078,1.409c0,0.469 0.078,0.939 0.078,1.33c-0.078,-0.078 -0.156,-0.078 -0.234,-0.078l-0.39,0c-0.078,0.001 -0.156,0.001 -0.314,0.079zm13.23,0c0.078,-0.548 0.156,-1.174 0.156,-1.801l0,-2.035l0,-2.113c0,-0.627 -0.078,-1.175 -0.156,-1.723a0.592,0.592 0 0 0 0.314,0.078l0.703,0c0.156,0 0.236,0 0.314,-0.078c0,0.47 -0.078,0.939 -0.078,1.409l0,4.15c0,0.626 0,1.096 0.078,1.487l1.096,0c0.312,0 0.625,0 0.939,-0.078c0.312,0 0.625,-0.078 0.861,-0.157l0,0.86c-0.314,-0.078 -0.627,-0.078 -0.939,-0.078l-2.194,0c-0.311,0.001 -0.701,0.001 -1.094,0.079zm6.889,0c0,-0.626 0.078,-1.174 0.078,-1.801l0,-2.035l0,-2.113c0,-0.627 -0.078,-1.175 -0.078,-1.723c0.078,0.078 0.156,0.078 0.314,0.078l0.624,0c0.078,0 0.236,0 0.314,-0.078c0,0.47 -0.078,1.018 -0.078,1.645l0,4.305c0,0.626 0.078,1.174 0.078,1.722c-0.078,-0.078 -0.158,-0.078 -0.236,-0.078l-0.782,0c-0.078,0 -0.156,0 -0.234,0.078zm5.873,-3.758l0,2.584c0,0.47 0,0.783 0.078,1.174c-0.078,-0.078 -0.236,-0.078 -0.314,-0.078l-0.705,0c-0.078,0 -0.234,0 -0.312,0.078c0.078,-0.548 0.078,-1.174 0.156,-1.801l0,-2.035l0,-2.113c-0.078,-0.627 -0.078,-1.175 -0.156,-1.723c0.393,0.078 0.783,0.078 1.096,0.078l2.116,0c0.312,0 0.625,0 0.939,-0.078c0,0.078 -0.08,0.156 -0.08,0.235l0,0.391c0.08,0.078 0.08,0.078 0.08,0.156c-0.314,0 -0.627,-0.078 -0.939,-0.078c-0.314,-0.078 -0.627,-0.078 -0.939,-0.078l-1.018,0l0,2.661l1.799,0c0.314,0 0.549,0 0.861,-0.078l0,0.783c-0.391,-0.079 -0.703,-0.079 -0.939,-0.079l-1.723,0l0,0.001zm5.4,3.758c0.078,-0.548 0.078,-1.174 0.078,-1.801c0.078,-0.626 0.078,-1.33 0.078,-2.035c0,-0.782 0,-1.487 -0.078,-2.113c0,-0.627 0,-1.175 -0.078,-1.645l3.132,0c0.314,0 0.627,0 0.939,-0.078l0,0.235c0,0.078 -0.078,0.078 -0.078,0.156s0.078,0.156 0.078,0.235l0,0.156c-0.234,0 -0.547,-0.078 -0.861,-0.078c-0.312,-0.078 -0.625,-0.078 -0.939,-0.078l-1.018,0l0,2.739l1.096,0c0.236,0 0.471,-0.078 0.705,-0.078s0.549,0 0.861,-0.078c-0.078,0.078 -0.078,0.156 -0.078,0.234l0,0.548c-0.312,-0.079 -0.627,-0.079 -0.861,-0.079l-1.723,0l0,3.132l1.018,0c0.314,0 0.627,0 0.939,-0.078c0.236,0 0.549,-0.078 0.861,-0.157l0,0.86c-0.312,-0.078 -0.625,-0.078 -0.939,-0.078l-2.036,0c-0.391,0.003 -0.705,0.003 -1.096,0.081z" />
      <path id="svg_4" d="m0,32.096l85.095,2.191l85.172,-2.191l0,-1.019l-85.172,-2.191l-85.095,2.191l0,1.019z" fill="#eac13d" />
      <path id="svg_5" d="m29.356,2.817l8.142,0l0,15.187l10.255,0l0,4.385l-18.397,0l0,-19.572zm103.179,20.354c-6.342,0 -11.664,-1.879 -11.664,-7.124l0,-13.23l7.828,0l0,12.604c0,2.505 1.801,3.601 3.836,3.601c1.957,0 3.758,-1.096 3.758,-3.601l0,-12.604l7.906,0l0,13.23c0,5.245 -5.322,7.124 -11.664,7.124zm28.182,-15.109l8.299,0c-0.391,-4.541 -6.732,-5.871 -11.664,-5.871c-4.854,0 -11.273,1.644 -11.273,6.498c0,3.601 3.523,4.697 6.027,5.245c1.723,0.313 4.619,0.861 6.029,1.174c2.035,0.392 3.131,0.783 3.131,2.036s-1.174,1.878 -3.602,1.878c-2.27,0 -3.68,-0.704 -4.07,-2.27l-8.455,0c0.471,5.324 7.281,6.419 12.682,6.419c5.402,0 11.9,-1.253 11.9,-6.498c0,-2.896 -1.879,-4.775 -6.42,-5.715a708.68,708.68 0 0 0 -6.889,-1.331c-1.723,-0.235 -2.271,-0.861 -2.271,-1.723c0,-0.783 0.783,-1.722 3.133,-1.722c1.956,0.001 3.052,0.628 3.443,1.88zm-48.692,7.124c5.871,0 7.357,-3.758 7.357,-6.106c0,-2.192 -1.252,-6.263 -7.357,-6.263l-15.814,0l0.078,19.572l7.672,0l0,-7.203l8.064,0zm-8.064,-4.305l0,-3.758l5.168,0c1.33,0 2.426,0.548 2.426,1.8c0,1.097 -0.625,1.958 -2.426,1.958l-5.168,0zm-46.423,-7.594l0.235,-0.47l8.142,0l-8.533,12.995l0,6.577l-7.672,0l0,-6.577l-8.454,-12.995l8.063,0l0.234,0.47l3.68,6.498c0.313,0.392 0.313,0.392 0.626,0l3.679,-6.498zm24.661,19.102l0.156,-0.392l4.149,-9.708c0.157,-0.235 0.392,-0.157 0.392,0.078l0,10.021l6.653,0l0,-19.571l-8.063,0l-0.157,0.47l-4.932,11.195c-0.235,0.391 -0.392,0.391 -0.548,0l-4.932,-11.195l-0.157,-0.47l-8.063,0l0,19.572l6.654,0l0,-10.021c0,-0.235 0.235,-0.313 0.313,-0.078l4.149,9.708l0.157,0.392l4.229,0l0,-0.001zm-54.643,-9.786c0,6.576 -5.715,10.49 -13.7,10.49c-7.907,0 -13.622,-3.914 -13.622,-10.49s5.715,-10.49 13.622,-10.49c7.985,0 13.7,3.914 13.7,10.49zm-8.22,0c0,-3.992 -2.036,-6.419 -5.48,-6.419c-3.366,0 -5.402,2.427 -5.402,6.419c0,3.914 2.036,6.419 5.402,6.419c3.445,0 5.48,-2.505 5.48,-6.419zm153.047,-5.715c1.879,0 3.365,-1.565 3.365,-3.444s-1.486,-3.444 -3.365,-3.444c-1.959,0 -3.445,1.565 -3.445,3.444s1.486,3.444 3.445,3.444zm-2.899,-3.444a2.89,2.89 0 0 1 2.898,-2.896c1.564,0 2.816,1.331 2.816,2.896a2.806,2.806 0 0 1 -2.816,2.818c-1.644,0 -2.898,-1.253 -2.898,-2.818z" fill="#3258a1" />
      <path id="svg_6" fill="#3258a1" d="m174.103,2.504c0,-0.705 -0.469,-1.096 -1.408,-1.096l-1.801,0l0,3.915l0.705,0l0,-1.723l0.939,0l0.783,1.723l0.781,0l-0.939,-1.723c0.628,-0.156 0.94,-0.47 0.94,-1.096zm-2.503,-0.548l1.096,0c0.469,0 0.705,0.235 0.705,0.548c0,0.392 -0.236,0.548 -0.705,0.548l-1.096,0l0,-1.096z" />
      <path id="svg_7" d="m0.392,32.096l85.251,2.191l85.251,-2.191l0,-1.019l-85.251,-2.191l-85.251,2.191l0,1.019z" fill="#eac13d" />
   </g>
</svg>